<svg width="709" height="709" viewBox="0 0 709 709" fill="none" xmlns="http://www.w3.org/2000/svg">
<path fill-rule="evenodd" clip-rule="evenodd" d="M612.928 82.9832C612.925 67.8902 615.189 63.6914 610.659 63.6914L533.658 116.057C532.011 117.366 530.575 118.211 528.954 119.296C529.433 125.053 529.626 121.844 529.158 127.367C528.872 130.75 528.94 134.04 528.95 137.449L528.962 421.159C529.097 441.192 524.092 438.298 511.254 429.772L449.997 385.493C446.537 383.006 444.427 381.127 440.894 378.709L414.652 359.56C390.692 341.685 348.704 309.262 327.017 295.133L292.263 269.743C286.442 265.531 261.013 246.928 255.993 245.927C247.324 244.199 241.852 251.092 241.852 260.01V355.333C241.852 358.763 241.717 357.656 243.14 359.719L264.492 374.68C276.134 382.254 300.837 402.444 311.984 410.027L335.377 427.487C339.914 430.886 343.327 433.136 347.873 436.553C352.179 439.79 355.595 442.035 359.711 445.141L438.915 504.381C439.104 504.525 439.371 504.727 439.561 504.869L502.204 551.166C506.512 554.404 509.935 556.65 514.05 559.747C525.252 568.18 529.233 574.758 541.115 571.812C546.264 570.535 578.033 552.163 580.937 550.299C597.409 539.724 614.063 527.24 614.063 500.586V155.61L612.928 82.9832Z" fill="#0093FF"/>
<path fill-rule="evenodd" clip-rule="evenodd" d="M254.335 149.936C256.393 149.936 265.227 156.668 267.469 158.363L293.597 177.627C298.563 181.054 301.956 183.891 306.76 187.159C311.377 190.302 314.67 193.167 319.231 196.249C321.654 197.887 323.765 199.071 325.995 200.833L410.681 262.535C414.748 265.906 418.956 268.358 423.246 271.531C427.743 274.856 431.743 277.706 436.588 280.884L449.977 290.192C457.808 295.356 454.009 293.118 461.47 295.72C462.412 296.049 465.404 297.459 465.406 297.459C480.834 297.459 476.694 283.059 476.715 267.915C476.725 260.498 477.938 256.982 477.896 248.67L477.888 205.541C477.888 197.809 474.2 194.904 469.484 191.25L360.991 110.232C345.16 96.9402 314.294 75.67 295.351 61.2585L285.818 54.9044C259.357 41.9281 245.47 51.7675 226.955 60.1435L186.738 82.3398C181.917 85.2773 177.992 87.4715 173.019 90.1813L162.962 96.0117C161.113 96.9234 160.71 96.9475 159.08 97.8036C148.12 103.561 116.197 123.996 108.2 132.033C94.9729 145.326 95.4636 162.803 95.4636 182.845L95.1578 602.081C94.3483 626.081 94.8374 616.33 113.391 604.757L157.221 574.827C186.618 553.398 180.573 573.38 180.573 501.721V246.393C180.573 232.488 180.233 218.185 180.505 204.338C180.732 192.817 188.817 190.21 201.225 181.936C207.45 177.786 250.278 149.936 254.335 149.936Z" fill="#071E3A"/>
<path fill-rule="evenodd" clip-rule="evenodd" d="M238.447 527.821C238.447 539.295 243.235 546.154 251.123 552.593L271.842 568.188C275.805 571.157 278.219 573.105 282.06 576.126L355.114 631.304C400.579 662.153 387.816 677.089 455.817 631.712C457.706 630.451 457.212 630.575 459.126 629.347C463.178 626.745 464.112 627.988 465.406 623.144C462.665 622.412 460.12 620.18 457.707 618.359L433.848 600.231C432.508 599.254 431.957 598.911 430.543 597.862L384.02 563.815C381.368 561.832 379.171 560.547 376.723 558.629L343.824 533.655C341.369 531.802 339.517 530.645 337.169 528.961C334.686 527.18 333.679 526.055 330.865 523.918C325.914 520.159 321.691 517.662 316.908 514.044L263.104 474.794C252.978 467.074 238.447 463.502 238.447 476.755V527.821Z" fill="#061F3A"/>
</svg>
